<svg viewBox="0 0 200 200" xmlns="http://www.w3.org/2000/svg" xmlns:xlink="http://www.w3.org/1999/xlink" width="110%" id="blobSvg">
  <path id="blob" d="M44.7,-58.8C59.7,-50.6,74.8,-39.9,80.6,-25.4C86.3,-10.9,82.7,7.4,75.1,22.4C67.5,37.5,55.9,49.2,42.7,56.6C29.5,63.9,14.8,66.8,-2.3,70C-19.4,73.2,-38.9,76.7,-51.2,69.1C-63.6,61.5,-68.8,42.8,-70.4,25.8C-71.9,8.7,-69.7,-6.6,-66.2,-22.8C-62.7,-38.9,-57.8,-55.9,-46.6,-65.3C-35.3,-74.7,-17.7,-76.5,-1.4,-74.6C14.8,-72.6,29.7,-67,44.7,-58.8Z" transform="translate(100 100)" fill="#83eec5"></path>
</svg>